<?xml version="1.0" encoding="UTF-8"?>
<svg version="1.1" xmlns="http://www.w3.org/2000/svg" width="119" height="114">
<path d="M0 0 C39.27 0 78.54 0 119 0 C119 37.62 119 75.24 119 114 C79.73 114 40.46 114 0 114 C0 76.38 0 38.76 0 0 Z " fill="#FDFCFD" transform="translate(0,0)"/>
<path d="M0 0 C19.41974383 8.47060355 28.39867302 30.25797224 37 48.21240234 C43.23158703 63.09333522 43.23158703 63.09333522 53.97607422 73.8918457 C56.07083288 74.28695371 56.07083288 74.28695371 59 74 C59.66 74 60.32 74 61 74 C61.66 72.02 62.32 70.04 63 68 C63.66 68 64.32 68 65 68 C65.36885505 76.96181156 65.46165544 83.87162157 60.3125 91.5 C57.56744298 93.28057753 55.34115134 93.69963548 52.07421875 93.48828125 C45.85520664 92.02429535 42.57980745 86.6554576 39.3125 81.5625 C35.02354176 74.31132353 31.22649019 66.80354445 27.359375 59.32177734 C17.45825879 39.71629018 17.45825879 39.71629018 1 26 C-2.79584904 25.54188029 -5.011359 25.45364576 -8.375 27.3125 C-10.24210971 29.00922741 -10.24210971 29.00922741 -11 32 C-11.66 32 -12.32 32 -13 32 C-16.69802613 23.91056783 -18.49347449 15.89495834 -17 7 C-12.50211835 0.19600106 -7.83400823 -1.37991546 0 0 Z " fill="#F1242A" transform="translate(28,6)"/>
<path d="M0 0 C3.03821705 3.14924824 3.31194484 5.61835795 3.2890625 9.8125 C3.28648438 10.5741748 3.28390625 11.33584961 3.28125 12.12060547 C2.42476017 29.94457316 -6.25676761 51.45226201 -15.6484375 66.4375 C-16.6384375 66.9325 -16.6384375 66.9325 -17.6484375 67.4375 C-18.28257612 57.66706789 -16.10630623 48.38467719 -14.11376953 38.88964844 C-13.74216334 37.11757387 -13.37320566 35.34494194 -13.00683594 33.57177734 C-12.65200873 31.8595298 -12.2897812 30.14879329 -11.91894531 28.43994141 C-10.85714943 23.33483507 -10.29631709 18.65580899 -10.6484375 13.4375 C-12.53218212 11.15693701 -12.53218212 11.15693701 -15.5859375 11 C-20.24317926 11.09804719 -24.08344906 13.23036181 -28.1953125 15.24609375 C-32.45094669 17.31292246 -35.64251015 17.54646958 -40.3359375 17.5 C-42.10517578 17.48646484 -42.10517578 17.48646484 -43.91015625 17.47265625 C-44.81378906 17.46105469 -45.71742187 17.44945313 -46.6484375 17.4375 C-43.55475695 15.3750463 -40.6688673 14.22810297 -37.2109375 12.875 C-31.93389262 10.7345064 -27.7437277 8.2238697 -23.2734375 4.6875 C-16.76142226 -0.45811629 -8.01233764 -4.72704286 0 0 Z " fill="#393B9F" transform="translate(105.6484375,8.5625)"/>
<path d="M0 0 C1.83633217 1.83633217 1.82561793 4.78022951 2.3125 7.25 C3.34116504 12.20675359 4.53345707 16.98003968 6.0625 21.8125 C6.70869773 23.87488586 7.35457092 25.93737346 8 28 C8.23074219 28.73089844 8.46148437 29.46179688 8.69921875 30.21484375 C11.26787222 39.70610941 10.93326865 51.41985345 9 61 C8.01 61.495 8.01 61.495 7 62 C6.87995605 61.42258057 6.75991211 60.84516113 6.63623047 60.25024414 C3.4265585 45.00656689 -0.08439225 30.23573191 -7.375 16.375 C-9.71215489 11.88520245 -11.04617392 9.02163483 -10 4 C-7.22970687 -0.1554397 -4.84078338 -0.53786482 0 0 Z " fill="#3D3FA1" transform="translate(28,37)"/>
<path d="M0 0 C0.33 0 0.66 0 1 0 C1.29698627 9.20657427 0.92571423 17.59285722 -5 25 C-5.66 25.66 -6.32 26.32 -7 27 C-12.30516301 27 -15.38155667 25.58924758 -19.15625 22.09765625 C-22.95527039 17.77546568 -25.96370558 12.87384402 -29 8 C-28.67 7.34 -28.34 6.68 -28 6 C-27.49210937 6.67546875 -26.98421875 7.3509375 -26.4609375 8.046875 C-20.17158576 16.44177824 -20.17158576 16.44177824 -10.9375 20.75 C-7.62271155 19.90367103 -7.19515078 19.45560591 -5.3125 16.75 C-2.39582264 11.51879803 -1.19401751 5.82447566 0 0 Z " fill="#4345A4" transform="translate(95,83)"/>
<path d="M0 0 C0.99 0 1.98 0 3 0 C3 1.65 3 3.3 3 5 C2.01 5.495 2.01 5.495 1 6 C0.23195349 8.37574403 0.23195349 8.37574403 -0.375 11.1875 C-1.67850113 16.30174678 -3.20890985 20.20890985 -7 24 C-10.10803441 24.53064002 -12.22602717 24.43687138 -15 22.87109375 C-19.31778543 19.73906379 -23.01376978 16.43118033 -26 12 C-25.62109375 9.8203125 -25.62109375 9.8203125 -25 8 C-24.60167969 8.55429688 -24.20335938 9.10859375 -23.79296875 9.6796875 C-22.99826172 10.76636719 -22.99826172 10.76636719 -22.1875 11.875 C-21.66542969 12.59429687 -21.14335938 13.31359375 -20.60546875 14.0546875 C-17.93288206 17.29300422 -16.25157509 17.97204721 -12.0625 18.4375 C-10.01046538 18.66915911 -10.01046538 18.66915911 -8 18 C-4.44378505 14.46350528 -3.09964325 10.95945292 -1.75 6.1875 C-1.41484375 5.02605469 -1.0796875 3.86460938 -0.734375 2.66796875 C-0.49203125 1.78753906 -0.2496875 0.90710938 0 0 Z " fill="#F2E8EE" transform="translate(94,80)"/>
<path d="M0 0 C0.33 0 0.66 0 1 0 C1.21432579 6.64409958 0.51233701 12.53205867 -1 19 C-1.66 18.34 -2.32 17.68 -3 17 C-3.66 17.33 -4.32 17.66 -5 18 C-3.36959185 11.98922864 -1.72852643 5.98336072 0 0 Z " fill="#5A5CAF" transform="translate(95,83)"/>
<path d="M0 0 C0.53625 0.721875 1.0725 1.44375 1.625 2.1875 C4.2092888 5.247842 6.87248014 7.51220011 10 10 C9.67 10.99 9.34 11.98 9 13 C1.95180723 7.36144578 1.95180723 7.36144578 0 4 C0 2.68 0 1.36 0 0 Z " fill="#E6D9E4" transform="translate(68,88)"/>
<path d="M0 0 C0.66 0.33 1.32 0.66 2 1 C1.67 1.33 1.34 1.66 1 2 C2.32 2.66 3.64 3.32 5 4 C0.71 4 -3.58 4 -8 4 C-5.31143836 2.20762558 -3.0466145 1.01553817 0 0 Z " fill="#5456AC" transform="translate(67,22)"/>
</svg>
